REM DIRINDEX 1\5,1\2\6,1\2\7,1\3\8,1\3\9,1\4\10,1\4\11,1\4\12
REM DIRNAME folder01,folder02,folder03,folder04,folder05,folder06,folder07,folder08,folder09,folder10,folder11,folder12
TITLE ""
FILE "EJE_DB3000_5th_1A_16.mp3" MP3
  TRACK 01 AUDIO
    TITLE "0:"
    INDEX 01 00:00:00
  TRACK 02 AUDIO
    TITLE "10:cjc026_07290"
    INDEX 01 00:00:05
  TRACK 03 AUDIO
    TITLE "0:"
    INDEX 01 00:00:66
  TRACK 04 AUDIO
    TITLE "11:cjc026_07291"
    INDEX 01 00:01:19
  TRACK 05 AUDIO
    TITLE "0:"
    INDEX 01 00:03:04
  TRACK 06 AUDIO
    TITLE "12:cjc026_07292"
    INDEX 01 00:03:29
  TRACK 07 AUDIO
    TITLE "0:"
    INDEX 01 00:04:17
  TRACK 08 AUDIO
    TITLE "10:cjc026_07293"
    INDEX 01 00:04:42
  TRACK 09 AUDIO
    TITLE "0:"
    INDEX 01 00:05:42
  TRACK 10 AUDIO
    TITLE "11:cjc026_07294"
    INDEX 01 00:05:69
  TRACK 11 AUDIO
    TITLE "0:"
    INDEX 01 00:06:69
  TRACK 12 AUDIO
    TITLE "12:cjc026_07295"
    INDEX 01 00:07:19
  TRACK 13 AUDIO
    TITLE "0:"
    INDEX 01 00:08:21
  TRACK 14 AUDIO
    TITLE "10:cjc026_07296"
    INDEX 01 00:08:48
  TRACK 15 AUDIO
    TITLE "0:"
    INDEX 01 00:09:44
  TRACK 16 AUDIO
    TITLE "11:cjc026_07297"
    INDEX 01 00:09:71
  TRACK 17 AUDIO
    TITLE "0:"
    INDEX 01 00:10:70
  TRACK 18 AUDIO
    TITLE "12:cjc026_07298"
    INDEX 01 00:11:21
  TRACK 19 AUDIO
    TITLE "0:"
    INDEX 01 00:12:18
  TRACK 20 AUDIO
    TITLE "10:cjc026_07299"
    INDEX 01 00:12:44
  TRACK 21 AUDIO
    TITLE "0:"
    INDEX 01 00:13:33
  TRACK 22 AUDIO
    TITLE "11:cjc026_07300"
    INDEX 01 00:13:59
  TRACK 23 AUDIO
    TITLE "0:"
    INDEX 01 00:14:53
  TRACK 24 AUDIO
    TITLE "12:cjc026_07301"
    INDEX 01 00:15:03
  TRACK 25 AUDIO
    TITLE "0:"
    INDEX 01 00:15:68
  TRACK 26 AUDIO
    TITLE "10:cjc026_07302"
    INDEX 01 00:16:18
  TRACK 27 AUDIO
    TITLE "0:"
    INDEX 01 00:17:16
  TRACK 28 AUDIO
    TITLE "11:cjc026_07303"
    INDEX 01 00:17:41
  TRACK 29 AUDIO
    TITLE "0:"
    INDEX 01 00:18:46
  TRACK 30 AUDIO
    TITLE "12:cjc026_07304"
    INDEX 01 00:18:72
  TRACK 31 AUDIO
    TITLE "0:"
    INDEX 01 00:19:67
  TRACK 32 AUDIO
    TITLE "10:cjc026_07305"
    INDEX 01 00:20:20
  TRACK 33 AUDIO
    TITLE "0:"
    INDEX 01 00:21:11
  TRACK 34 AUDIO
    TITLE "11:cjc026_07306"
    INDEX 01 00:21:37
  TRACK 35 AUDIO
    TITLE "0:"
    INDEX 01 00:22:25
  TRACK 36 AUDIO
    TITLE "12:cjc026_07307"
    INDEX 01 00:22:52
  TRACK 37 AUDIO
    TITLE "0:"
    INDEX 01 00:23:44
  TRACK 38 AUDIO
    TITLE "10:cjc026_07308"
    INDEX 01 00:23:67
  TRACK 39 AUDIO
    TITLE "0:"
    INDEX 01 00:24:57
  TRACK 40 AUDIO
    TITLE "11:cjc026_07309"
    INDEX 01 00:25:09
  TRACK 41 AUDIO
    TITLE "0:"
    INDEX 01 00:26:03
  TRACK 42 AUDIO
    TITLE "12:cjc026_07310"
    INDEX 01 00:26:28
  TRACK 43 AUDIO
    TITLE "0:"
    INDEX 01 00:27:16
  TRACK 44 AUDIO
    TITLE "10:cjc026_07311"
    INDEX 01 00:27:43
  TRACK 45 AUDIO
    TITLE "0:"
    INDEX 01 00:28:33
  TRACK 46 AUDIO
    TITLE "11:cjc026_07312"
    INDEX 01 00:28:59
  TRACK 47 AUDIO
    TITLE "0:"
    INDEX 01 00:29:48
  TRACK 48 AUDIO
    TITLE "12:cjc026_07313"
    INDEX 01 00:29:74
  TRACK 49 AUDIO
    TITLE "0:"
    INDEX 01 00:30:63
  TRACK 50 AUDIO
    TITLE "10:cjc026_07314"
    INDEX 01 00:31:14
  TRACK 51 AUDIO
    TITLE "0:"
    INDEX 01 00:32:05
  TRACK 52 AUDIO
    TITLE "11:cjc026_07315"
    INDEX 01 00:32:31
  TRACK 53 AUDIO
    TITLE "0:"
    INDEX 01 00:33:40
  TRACK 54 AUDIO
    TITLE "12:cjc026_07316"
    INDEX 01 00:33:66
  TRACK 55 AUDIO
    TITLE "0:"
    INDEX 01 00:34:57
  TRACK 56 AUDIO
    TITLE "10:cjc026_07317"
    INDEX 01 00:35:10
  TRACK 57 AUDIO
    TITLE "0:"
    INDEX 01 00:35:72
  TRACK 58 AUDIO
    TITLE "11:cjc026_07318"
    INDEX 01 00:36:27
  TRACK 59 AUDIO
    TITLE "0:"
    INDEX 01 00:37:20
  TRACK 60 AUDIO
    TITLE "12:cjc026_07319"
    INDEX 01 00:37:46
  TRACK 61 AUDIO
    TITLE "0:"
    INDEX 01 00:38:35
  TRACK 62 AUDIO
    TITLE "10:cjc026_07320"
    INDEX 01 00:38:65
  TRACK 63 AUDIO
    TITLE "0:"
    INDEX 01 00:39:60
  TRACK 64 AUDIO
    TITLE "11:cjc026_07321"
    INDEX 01 00:40:11
  TRACK 65 AUDIO
    TITLE "0:"
    INDEX 01 00:41:08
  TRACK 66 AUDIO
    TITLE "12:cjc026_07322"
    INDEX 01 00:41:34
  TRACK 67 AUDIO
    TITLE "0:"
    INDEX 01 00:42:29
  TRACK 68 AUDIO
    TITLE "10:cjc026_07323"
    INDEX 01 00:42:57
  TRACK 69 AUDIO
    TITLE "0:"
    INDEX 01 00:43:48
  TRACK 70 AUDIO
    TITLE "11:cjc026_07324"
    INDEX 01 00:43:74
  TRACK 71 AUDIO
    TITLE "0:"
    INDEX 01 00:44:60
  TRACK 72 AUDIO
    TITLE "12:cjc026_07325"
    INDEX 01 00:45:12
  TRACK 73 AUDIO
    TITLE "0:"
    INDEX 01 00:46:04
